<?xml version="1.0" standalone="no"?>
<!DOCTYPE svg PUBLIC "-//W3C//DTD SVG 20010904//EN"
 "http://www.w3.org/TR/2001/REC-SVG-20010904/DTD/svg10.dtd">
<svg version="1.0" xmlns="http://www.w3.org/2000/svg"
 width="4168.000000pt" height="4168.000000pt" viewBox="0 0 4168.000000 4168.000000"
 preserveAspectRatio="xMidYMid meet">
<metadata>
Created by potrace 1.14, written by Peter Selinger 2001-2017
</metadata>
<g transform="translate(0.000000,4168.000000) scale(0.100000,-0.100000)"
fill="#000000" stroke="none">
<path d="M11735 26664 c-1408 -1410 -2561 -2567 -2562 -2571 -2 -5 415 -426
926 -937 l930 -930 1636 1637 c900 900 1639 1637 1642 1637 5 0 3144 -3131
3248 -3239 l33 -35 933 933 932 932 -2569 2570 c-1413 1413 -2573 2569 -2579
2568 -5 0 -1162 -1154 -2570 -2565z"/>
<path d="M24805 26660 l-2570 -2570 932 -932 931 -931 1637 1634 c900 899
1640 1634 1645 1634 6 0 745 -735 1644 -1634 l1635 -1635 932 933 c512 512
930 934 928 936 -35 38 -5135 5135 -5139 5135 -3 0 -1162 -1157 -2575 -2570z"/>
<path d="M13365 21784 c-517 -519 -941 -945 -942 -947 -1 -2 422 -427 940
-945 l943 -943 942 939 c518 517 942 943 942 948 0 5 -424 433 -942 951 l-943
942 -940 -945z"/>
<path d="M26447 21795 c-513 -513 -938 -939 -944 -947 -11 -12 143 -170 932
-957 l945 -943 941 941 c517 517 939 945 937 951 -1 5 -425 432 -941 948
l-938 939 -932 -932z"/>
<path d="M6842 21770 l-933 -930 933 -935 933 -936 932 934 932 933 -932 932
-932 932 -933 -930z"/>
<path d="M19911 21770 l-933 -930 934 -935 933 -936 932 934 931 934 -931 931
-932 932 -934 -930z"/>
<path d="M32980 21770 c-509 -510 -924 -931 -922 -936 2 -5 419 -426 928 -936
l925 -928 930 933 c511 512 929 934 929 937 0 8 -1849 1855 -1858 1856 -4 1
-423 -416 -932 -926z"/>
<path d="M15946 17808 l-1640 -1639 -1637 1637 -1637 1637 -34 -30 c-70 -63
-1828 -1821 -1828 -1828 0 -4 1156 -1163 2568 -2576 l2568 -2568 2572 2572
2572 2572 -928 928 c-510 510 -929 929 -932 931 -3 2 -743 -734 -1644 -1636z"/>
<path d="M23171 18521 c-508 -510 -924 -932 -923 -937 2 -10 5123 -5134 5132
-5134 3 0 1160 1155 2573 2568 l2567 2567 -925 925 c-509 509 -930 925 -935
925 -6 0 -746 -736 -1646 -1635 l-1634 -1634 -1638 1636 c-900 901 -1639 1639
-1642 1642 -3 2 -421 -413 -929 -923z"/>
</g>
</svg>
