<!-- Generator: Adobe Illustrator 25.2.1, SVG Export Plug-In  -->
<svg version="1.1" xmlns="http://www.w3.org/2000/svg" xmlns:xlink="http://www.w3.org/1999/xlink" x="0px" y="0px"
	 width="263.17px" height="36.87px" viewBox="0 0 263.17 36.87" style="overflow:visible;enable-background:new 0 0 263.17 36.87;"
	 xml:space="preserve">
<style type="text/css">
	.st0{fill:#F7B614;}
	.st1{fill:#FFFFFF;}
</style>
<defs>
</defs>
<g>
	<g>
		<polygon class="st0" points="18.44,14.3 22.58,18.44 18.44,22.58 14.3,18.44 		"/>
		<polygon class="st0" points="8.18,18.44 4.1,22.53 4.09,22.53 0,18.44 4.09,14.36 		"/>
		<polygon class="st0" points="29.72,25.58 18.44,36.87 7.15,25.58 11.24,21.5 18.44,28.7 25.64,21.49 		"/>
		<polygon class="st0" points="29.73,11.3 25.64,15.38 18.44,8.18 11.24,15.38 7.15,11.3 18.44,0 		"/>
		<polygon class="st0" points="36.88,18.44 32.8,22.53 32.79,22.53 28.7,18.44 32.79,14.36 		"/>
		<polygon class="st0" points="47.15,14.3 43,18.44 47.15,22.58 51.29,18.44 		"/>
		<polygon class="st0" points="57.41,18.44 61.49,22.53 61.49,22.53 65.58,18.44 61.49,14.36 		"/>
		<polygon class="st0" points="35.86,25.58 47.15,36.87 58.43,25.58 54.35,21.5 47.15,28.7 39.94,21.49 		"/>
		<polygon class="st0" points="35.85,11.3 39.94,15.38 47.15,8.18 54.35,15.38 58.43,11.3 47.15,0 		"/>
	</g>
	<g>
		<g>
			<path class="st1" d="M95.15,3.77v4.02h-4.7v14.25h-4.18V7.79h-4.7V3.77H95.15z"/>
			<path class="st1" d="M106.89,3.77h4.18v18.26h-4.18v-7.25h-5.74v7.25h-4.17V3.77h4.17v6.99h5.74V3.77z"/>
			<path class="st1" d="M118.37,18.02h7.3v4.02H114.2V3.77h11.35v4.02h-7.17v3.03h6.52v3.97h-6.52V18.02z"/>
			<path class="st1" d="M145.87,12.57c1.5,0.96,2.24,2.33,2.24,4.12c0,1.58-0.57,2.87-1.7,3.86c-1.13,0.99-2.53,1.49-4.2,1.49h-7.67
				V3.77h7.15c1.63,0,3,0.48,4.11,1.45c1.1,0.97,1.66,2.22,1.66,3.77C147.46,10.45,146.93,11.64,145.87,12.57z M141.7,7.69h-2.97
				v3.23h2.97c0.47,0,0.85-0.15,1.15-0.46s0.44-0.69,0.44-1.16c0-0.47-0.15-0.86-0.44-1.16S142.17,7.69,141.7,7.69z M142.22,18.12
				c0.52,0,0.94-0.16,1.25-0.48c0.31-0.32,0.47-0.74,0.47-1.27c0-0.52-0.16-0.94-0.47-1.27c-0.31-0.32-0.73-0.48-1.25-0.48h-3.5v3.5
				H142.22z"/>
			<path class="st1" d="M160.38,3.77h4.17v18.26h-3.13l-7.04-9.91v9.91h-4.18V3.77h3.13l7.04,9.91V3.77z"/>
			<path class="st1" d="M179,12.57c1.5,0.96,2.24,2.33,2.24,4.12c0,1.58-0.57,2.87-1.7,3.86c-1.13,0.99-2.53,1.49-4.2,1.49h-7.67
				V3.77h7.15c1.63,0,3,0.48,4.11,1.45c1.1,0.97,1.66,2.22,1.66,3.77C180.6,10.45,180.06,11.64,179,12.57z M174.83,7.69h-2.97v3.23
				h2.97c0.47,0,0.85-0.15,1.15-0.46s0.44-0.69,0.44-1.16c0-0.47-0.15-0.86-0.44-1.16S175.3,7.69,174.83,7.69z M175.35,18.12
				c0.52,0,0.94-0.16,1.25-0.48c0.31-0.32,0.47-0.74,0.47-1.27c0-0.52-0.16-0.94-0.47-1.27c-0.31-0.32-0.73-0.48-1.25-0.48h-3.5v3.5
				H175.35z"/>
			<path class="st1" d="M193.92,22.04l-5.63-18.26h4.56l4.07,13.49l4.03-13.49h4.2l-5.58,18.26H193.92z"/>
			<path class="st1" d="M217.94,22.04l-0.98-2.87h-7.02l-0.91,2.87h-4.57l6.21-18.26h5.32l6.22,18.26H217.94z M211.2,15.25h4.43
				l-2.29-6.7L211.2,15.25z"/>
			<path class="st1" d="M235.23,20.71c-1.32,1.13-3.01,1.7-5.06,1.7c-2.05,0-3.74-0.57-5.06-1.7c-1.32-1.13-1.98-2.65-1.98-4.57
				V3.77h4.17v12c0,1.7,0.96,2.56,2.87,2.56c1.91,0,2.87-0.85,2.87-2.56v-12h4.18v12.37C237.21,18.05,236.55,19.57,235.23,20.71z"/>
			<path class="st1" d="M244.39,18.02h6.52v4.02h-10.7V3.77h4.18V18.02z"/>
			<path class="st1" d="M263.17,3.77v4.02h-4.7v14.25h-4.18V7.79h-4.7V3.77H263.17z"/>
		</g>
		<g>
			<path class="st0" d="M87.76,29.39h-0.97l-0.12,0.73h0.97l-0.16,1.01H86.5l-0.23,1.38h-1.04l0.23-1.38h-0.85l-0.23,1.38h-1.04
				l0.23-1.38H82.6l0.16-1.01h0.98l0.12-0.73h-0.98l0.16-1.01h0.98l0.23-1.38h1.04l-0.23,1.38h0.85l0.23-1.38h1.04l-0.23,1.38h0.96
				L87.76,29.39z M85.63,30.13l0.12-0.73H84.9l-0.12,0.73H85.63z"/>
			<path class="st0" d="M89.88,26.55h1.28v6.42h-1.47V28.1l-1.14,0.31l-0.36-1.26L89.88,26.55z"/>
			<path class="st0" d="M97.71,33.1c-0.96,0-1.76-0.32-2.39-0.96c-0.63-0.64-0.95-1.43-0.95-2.38c0-0.95,0.32-1.74,0.95-2.38
				c0.63-0.64,1.43-0.96,2.39-0.96c0.57,0,1.11,0.13,1.6,0.4c0.49,0.27,0.87,0.63,1.15,1.09l-1.27,0.73
				c-0.14-0.25-0.34-0.44-0.6-0.58c-0.26-0.14-0.56-0.21-0.88-0.21c-0.57,0-1.02,0.17-1.36,0.52c-0.34,0.35-0.51,0.81-0.51,1.38
				s0.17,1.04,0.51,1.38c0.34,0.35,0.79,0.52,1.36,0.52c0.32,0,0.62-0.07,0.88-0.21c0.27-0.14,0.47-0.33,0.6-0.58l1.27,0.73
				c-0.27,0.46-0.66,0.82-1.15,1.09C98.82,32.96,98.29,33.1,97.71,33.1z"/>
			<path class="st0" d="M106.48,32.13c-0.65,0.64-1.44,0.96-2.37,0.96c-0.93,0-1.72-0.32-2.37-0.96c-0.65-0.64-0.97-1.43-0.97-2.37
				c0-0.94,0.32-1.73,0.97-2.37c0.65-0.64,1.44-0.96,2.37-0.96c0.93,0,1.72,0.32,2.37,0.96c0.65,0.64,0.97,1.43,0.97,2.37
				C107.45,30.7,107.13,31.49,106.48,32.13z M102.78,31.14c0.36,0.36,0.8,0.53,1.33,0.53c0.53,0,0.98-0.18,1.33-0.53
				c0.36-0.35,0.54-0.81,0.54-1.38c0-0.56-0.18-1.02-0.54-1.38c-0.36-0.35-0.8-0.53-1.33-0.53c-0.53,0-0.98,0.18-1.33,0.53
				c-0.36,0.35-0.54,0.81-0.54,1.38C102.24,30.32,102.42,30.78,102.78,31.14z"/>
			<path class="st0" d="M114.69,26.55v6.42h-1.47v-3.73l-1.66,2.72h-0.16l-1.66-2.72v3.73h-1.47v-6.42h1.47l1.74,2.85l1.74-2.85
				H114.69z"/>
			<path class="st0" d="M122.21,26.55v6.42h-1.47v-3.73l-1.66,2.72h-0.16l-1.66-2.72v3.73h-1.47v-6.42h1.47L119,29.4l1.74-2.85
				H122.21z"/>
			<path class="st0" d="M127.52,32.5c-0.47,0.4-1.06,0.6-1.78,0.6c-0.72,0-1.31-0.2-1.78-0.6c-0.46-0.4-0.7-0.93-0.7-1.6v-4.35h1.47
				v4.22c0,0.6,0.34,0.9,1.01,0.9c0.67,0,1.01-0.3,1.01-0.9v-4.22h1.47v4.35C128.22,31.57,127.99,32.1,127.52,32.5z"/>
			<path class="st0" d="M132.85,26.55h1.47v6.42h-1.1l-2.48-3.48v3.48h-1.47v-6.42h1.1l2.48,3.48V26.55z"/>
			<path class="st0" d="M135.41,26.55h1.47v6.42h-1.47V26.55z"/>
			<path class="st0" d="M142.29,26.55v1.41h-1.65v5.01h-1.47v-5.01h-1.65v-1.41H142.29z"/>
			<path class="st0" d="M148.16,26.55L146,30.5v2.47h-1.47V30.5l-2.15-3.95h1.67l1.22,2.47l1.22-2.47H148.16z"/>
			<path class="st0" d="M156.22,26.55l-2.15,3.95v2.47h-1.47V30.5l-2.15-3.95h1.67l1.22,2.47l1.22-2.47H156.22z"/>
			<path class="st0" d="M158.24,31.56h2.57v1.41h-4.03v-6.42h3.99v1.41h-2.52v1.06h2.29v1.39h-2.29V31.56z"/>
			<path class="st0" d="M161.63,26.55h1.47v6.42h-1.47V26.55z"/>
			<path class="st0" d="M165.67,31.56h2.29v1.41h-3.76v-6.42h1.47V31.56z"/>
			<path class="st0" d="M171.17,26.55c0.89,0,1.63,0.31,2.22,0.92c0.6,0.61,0.89,1.38,0.89,2.29c0,0.91-0.3,1.67-0.89,2.29
				s-1.34,0.92-2.22,0.92h-2.57v-6.42H171.17z M171.17,31.56c0.51,0,0.92-0.16,1.23-0.49c0.31-0.33,0.47-0.76,0.47-1.31
				c0-0.54-0.16-0.98-0.47-1.31c-0.31-0.33-0.73-0.49-1.23-0.49h-1.1v3.59H171.17z"/>
			<path class="st0" d="M181.3,27.96h-2.43v1.24h2.38v1.41h-2.38v2.36h-1.47v-6.42h3.9V27.96z"/>
			<path class="st0" d="M186.08,32.97l-0.34-1.01h-2.47l-0.32,1.01h-1.6l2.18-6.42h1.87l2.19,6.42H186.08z M183.71,30.59h1.55
				l-0.8-2.36L183.71,30.59z"/>
			<path class="st0" d="M191.5,32.97l-1.21-2.11h-0.69v2.11h-1.47v-6.42h2.57c0.61,0,1.13,0.21,1.56,0.64
				c0.43,0.43,0.64,0.95,0.64,1.56c0,0.39-0.11,0.75-0.33,1.09c-0.22,0.33-0.5,0.59-0.86,0.77l1.37,2.36H191.5z M189.59,27.93v1.65
				h1.1c0.2,0,0.37-0.08,0.52-0.24c0.14-0.16,0.21-0.35,0.21-0.59c0-0.23-0.07-0.43-0.21-0.59s-0.32-0.24-0.52-0.24H189.59z"/>
			<path class="st0" d="M200.18,26.55v6.42h-1.47v-3.73l-1.66,2.72h-0.16l-1.66-2.72v3.73h-1.47v-6.42h1.47l1.74,2.85l1.74-2.85
				H200.18z"/>
			<path class="st0" d="M201.28,26.55h1.47v6.42h-1.47V26.55z"/>
			<path class="st0" d="M207.43,26.55h1.47v6.42h-1.1l-2.48-3.48v3.48h-1.47v-6.42h1.1l2.48,3.48V26.55z"/>
			<path class="st0" d="M216.35,29.39v0.55c0,0.96-0.3,1.72-0.89,2.3c-0.6,0.57-1.35,0.86-2.27,0.86c-1,0-1.82-0.32-2.48-0.96
				c-0.66-0.64-0.99-1.43-0.99-2.37c0-0.93,0.33-1.73,0.98-2.37c0.65-0.65,1.45-0.97,2.39-0.97c0.6,0,1.15,0.14,1.65,0.4
				c0.5,0.27,0.88,0.62,1.16,1.06l-1.25,0.72c-0.14-0.22-0.35-0.4-0.63-0.54c-0.28-0.14-0.59-0.21-0.94-0.21
				c-0.54,0-1,0.18-1.35,0.54c-0.36,0.36-0.54,0.82-0.54,1.38c0,0.56,0.18,1.01,0.55,1.36s0.85,0.53,1.47,0.53
				c0.85,0,1.4-0.33,1.64-0.99h-1.71v-1.28H216.35z"/>
			<path class="st0" d="M223.04,26.55h1.47v6.42h-1.1l-2.48-3.48v3.48h-1.47v-6.42h1.1l2.48,3.48V26.55z"/>
			<path class="st0" d="M227.07,31.56h2.57v1.41h-4.03v-6.42h3.99v1.41h-2.52v1.06h2.29v1.39h-2.29V31.56z"/>
			<path class="st0" d="M234.77,26.55v1.41h-1.65v5.01h-1.47v-5.01H230v-1.41H234.77z"/>
			<path class="st0" d="M236.72,32.97l-1.77-6.42h1.54l1.11,4.49l1.24-4.49h1.19l1.24,4.49l1.11-4.49h1.54l-1.77,6.42h-1.67
				l-1.05-3.8l-1.05,3.8H236.72z"/>
			<path class="st0" d="M249.72,32.13c-0.65,0.64-1.44,0.96-2.37,0.96c-0.93,0-1.72-0.32-2.37-0.96c-0.65-0.64-0.97-1.43-0.97-2.37
				c0-0.94,0.32-1.73,0.97-2.37c0.65-0.64,1.44-0.96,2.37-0.96c0.93,0,1.72,0.32,2.37,0.96c0.65,0.64,0.97,1.43,0.97,2.37
				C250.69,30.7,250.36,31.49,249.72,32.13z M246.02,31.14c0.36,0.36,0.8,0.53,1.33,0.53c0.53,0,0.98-0.18,1.33-0.53
				c0.36-0.35,0.54-0.81,0.54-1.38c0-0.56-0.18-1.02-0.54-1.38c-0.36-0.35-0.8-0.53-1.33-0.53c-0.53,0-0.98,0.18-1.33,0.53
				c-0.36,0.35-0.54,0.81-0.54,1.38C245.48,30.32,245.66,30.78,246.02,31.14z"/>
			<path class="st0" d="M254.89,32.97l-1.21-2.11h-0.69v2.11h-1.47v-6.42h2.57c0.61,0,1.13,0.21,1.56,0.64
				c0.43,0.43,0.64,0.95,0.64,1.56c0,0.39-0.11,0.75-0.33,1.09c-0.22,0.33-0.5,0.59-0.86,0.77l1.37,2.36H254.89z M252.98,27.93v1.65
				h1.1c0.2,0,0.37-0.08,0.52-0.24c0.14-0.16,0.21-0.35,0.21-0.59c0-0.23-0.07-0.43-0.21-0.59c-0.14-0.16-0.32-0.24-0.52-0.24
				H252.98z"/>
			<path class="st0" d="M262.34,32.97h-1.67L258.62,30v2.96h-1.47v-6.42h1.47v2.79l1.96-2.79h1.67l-2.16,3.13L262.34,32.97z"/>
		</g>
	</g>
</g>
</svg>
